<svg width="360" height="293" viewBox="0 0 360 293" fill="none" xmlns="http://www.w3.org/2000/svg">
<g clip-path="url(#clip0_1_1314)">
<path d="M243.475 204.56H234.38C236.165 202.095 237.27 198.695 237.27 195.04C237.27 187.305 232.51 181.1 226.56 181.1H11.595C5.64501 181.1 0.88501 187.39 0.88501 195.04C0.88501 202.775 5.64501 208.98 11.595 208.98H17.715C18.65 208.98 19.5 209.235 20.18 209.66C18.65 212.04 17.715 215.185 17.715 218.5C17.715 226.235 22.475 232.44 28.425 232.44H34.545C37.945 232.44 40.665 236.095 40.665 240.6V240.685C40.665 248.42 45.425 254.625 51.375 254.625H204.12C210.07 254.625 214.83 248.335 214.83 240.685V240.6C214.83 236.18 217.55 232.44 220.95 232.44H243.475C249.425 232.44 254.185 226.15 254.185 218.5C254.185 210.765 249.425 204.56 243.475 204.56Z" fill="#E1ECFF"/>
<path d="M228.005 128.655L113.51 85.135L111.895 164.865L213.215 212.295C215.85 213.57 218.91 211.785 219.25 208.895L228.005 128.655Z" fill="#FC7EC1"/>
<path d="M47.4651 192.575L111.895 164.865L113.51 85.135L36.7551 117.775L41.3451 188.835C41.6001 191.895 44.6601 193.765 47.4651 192.575Z" fill="#F969BB"/>
<path d="M113.51 85.135H90.1351C85.7151 85.135 81.3801 86.07 77.3851 87.855L13.5501 116.075C11.8501 116.84 12.4451 119.39 14.3151 119.22L36.6701 117.775L113.51 85.135Z" fill="#FF97C9"/>
<path d="M113.51 85.135L228.005 128.655H240.33C241.775 128.655 242.115 126.615 240.755 126.105L133.4 86.41C131.19 85.56 128.81 85.135 126.43 85.135H113.51Z" fill="#FF97C9"/>
<path d="M141.05 183.65L132.635 207.705C132.635 207.705 116.825 191.64 103.48 164.015C100.08 157.045 98.805 149.65 98.72 142.595C98.465 124.83 106.285 109.275 109.77 108.935C113.425 108.595 108.665 123.13 109.94 137.75C110.365 142.595 111.385 147.355 113.595 151.69C124.985 174.045 141.05 183.65 141.05 183.65Z" fill="#FF8D76"/>
<path d="M109.855 137.75C107.22 139.365 102.715 141.745 98.635 142.51C98.38 124.745 106.2 109.19 109.685 108.85C113.34 108.595 108.665 123.13 109.855 137.75Z" fill="#FFD3B3"/>
<path d="M196.47 190.875C195.79 208.13 182.275 222.75 164.255 225.3C161.28 225.725 158.135 225.98 154.735 225.98C151.42 225.98 148.445 225.895 145.64 225.555C128.725 223.77 115.38 211.02 113.34 195.04C111.385 179.57 110.025 156.45 116.23 140.81C117.76 136.9 119.885 133.585 122.35 130.695C130.85 121.005 143.6 117.52 153.63 117.35C163.745 117.18 177.94 119.73 186.95 129.59C191.115 134.095 194.175 140.13 195.28 148.205C197.065 161.55 196.98 178.125 196.47 190.875Z" fill="#FEA691"/>
<path d="M153.46 209.745C169.78 210 181.51 203.115 182.615 185.605C183.72 168.095 186.27 139.79 154.735 139.11C123.2 138.43 126.515 170.22 126.26 182.12C126.005 194.02 133.315 209.405 153.46 209.745Z" fill="#FFD3B3"/>
<path d="M186.865 129.675C178.195 134.095 166.38 136.9 153.375 136.9C141.475 136.9 130.595 134.605 122.265 130.865C130.765 121.175 143.515 117.69 153.545 117.52C163.66 117.265 177.855 119.815 186.865 129.675Z" fill="#FF8D76"/>
<path d="M36.7551 117.775L41.3451 188.665C41.6001 192.66 43.8951 196.23 47.4651 198.1L146.575 250.545L148.105 165.035L36.7551 117.775Z" fill="#FF97C9"/>
<path d="M39.6452 162.57L120.905 202.18C125.155 204.22 130.17 202.945 132.89 199.12L148.02 177.53V165.035L36.6702 117.775L39.6452 162.57Z" fill="#FC7EC1"/>
<path d="M25.2801 149.225L121.925 194.785C124.73 196.145 128.045 195.21 129.83 192.575L148.19 165.035L36.84 117.775L22.7301 140.215C20.6051 143.445 21.8801 147.61 25.2801 149.225Z" fill="#FF97C9"/>
<path d="M211.855 218.245L146.575 250.545L148.105 165.035L228.005 128.655L219.42 207.45C218.91 212.125 216.02 216.12 211.855 218.245Z" fill="#FC7EC1"/>
<path d="M148.105 177.53L157.115 197.08C159.325 201.84 165.02 203.795 169.695 201.5L223.075 174.555L228.09 128.74L148.19 165.12V177.53H148.105Z" fill="#F969BB"/>
<path d="M163.66 192.575L148.105 165.035L228.005 128.655L242.54 153.05C243.985 155.43 243.05 158.575 240.585 159.765L169.95 194.445C167.655 195.55 164.935 194.7 163.66 192.575Z" fill="#FF97C9"/>
<path d="M246.535 82.0751C246.365 85.4751 242.54 104.94 223.415 121.345C205.565 136.645 181.425 148.29 181.425 148.29L180.065 112.42C180.065 112.42 201.995 105.96 214.83 94.8251C227.665 83.6901 232.17 72.7251 235.4 71.3651C236.76 70.7701 237.95 70.8551 238.8 71.0251C239.99 71.2801 240.67 71.9601 240.67 71.9601C240.67 71.9601 240.755 71.9601 240.925 71.8751C241.52 71.7051 242.965 71.5351 244.325 73.0651C245.26 74.0851 245.005 77.0601 245.005 77.0601C245.005 77.0601 246.025 78.0801 246.28 80.2051C246.535 80.8001 246.62 81.3951 246.535 82.0751Z" fill="#FEA691"/>
<path d="M229.292 97.6075C232.159 99.308 236.191 97.8065 238.299 94.2538C240.406 90.701 239.791 86.4424 236.925 84.7419C234.059 83.0414 230.026 84.5429 227.919 88.0956C225.811 91.6484 226.426 95.907 229.292 97.6075Z" fill="#FFD3B3"/>
<path d="M241.095 71.9601C240.925 72.7251 240.585 74.0001 239.82 75.8701C238.46 79.1001 237.44 80.5451 236.93 80.7151C235.655 81.2251 235.485 79.4401 236.76 76.9751C237.695 75.0201 238.545 72.2151 238.885 71.1101C240.075 71.3651 240.755 72.0451 240.755 72.0451C240.755 72.0451 240.925 71.9601 241.095 71.9601Z" fill="#FF8D76"/>
<path d="M246.535 80.29C246.365 80.63 246.28 80.97 246.11 81.395C244.665 84.625 243.56 85.985 243.05 86.155C241.775 86.58 241.69 84.88 242.965 82.415C244.325 79.95 245.26 77.145 245.26 77.145C245.26 77.145 246.195 78.165 246.535 80.29Z" fill="#FF8D76"/>
<path d="M182.445 147.95C182.02 147.95 181.595 147.695 181.425 147.27C181.17 146.675 181.425 145.995 182.02 145.74C182.19 145.655 202.505 136.815 219.76 122.62C241.605 104.685 244.325 86.6651 244.325 86.4951C244.41 85.9001 245.005 85.3901 245.6 85.4751C246.195 85.5601 246.705 86.1551 246.62 86.7501C246.535 87.5151 243.815 105.705 221.205 124.32C203.695 138.685 183.21 147.695 182.955 147.78C182.785 147.865 182.615 147.95 182.445 147.95Z" fill="#FF8D76"/>
<path d="M162.895 44.335C162.895 44.335 171.395 25.04 176.41 24.105C181.34 23.17 183.89 35.325 185.93 45.44C188.055 55.555 188.565 63.97 188.565 63.97L162.895 44.335Z" fill="#FEA691"/>
<path d="M167.315 44.2501C167.315 44.2501 172.925 31.6701 176.155 31.0751C179.385 30.4801 181 38.4701 182.36 45.015C183.72 51.645 184.145 57.0851 184.145 57.0851L167.315 44.2501Z" fill="#FFD3B3"/>
<path d="M144.875 44.335C144.875 44.335 136.375 25.04 131.36 24.105C126.43 23.17 123.88 35.325 121.84 45.44C119.8 55.555 119.205 63.97 119.205 63.97L144.875 44.335Z" fill="#FEA691"/>
<path d="M140.455 44.2501C140.455 44.2501 134.845 31.6701 131.615 31.0751C128.385 30.4801 126.77 38.4701 125.41 45.015C124.05 51.645 123.625 57.0851 123.625 57.0851L140.455 44.2501Z" fill="#FFD3B3"/>
<path d="M191.03 97.3751L168.76 96.7801L136.545 95.9301L115.89 95.4201C115.89 95.4201 114.955 66.4351 123.37 52.4951C127.79 45.1001 136.035 39.9151 145.13 37.7901C149.72 36.6851 154.565 36.3451 159.24 36.9401C165.36 37.7051 171.225 40.0001 175.815 44.0801C190.69 57.2551 189.16 69.4951 190.095 79.6101C191.03 89.7251 191.03 97.3751 191.03 97.3751Z" fill="#FEA691"/>
<path d="M168.76 96.7801L136.545 95.9301C138.245 91.5951 141.22 82.5851 142.92 70.3451C144.62 58.4451 144.96 45.1851 145.045 37.7901C149.635 36.6851 154.48 36.3451 159.155 36.9401C159.24 43.8251 159.75 55.8101 161.79 69.2401C164.085 84.2001 167.23 93.0401 168.76 96.7801Z" fill="#FFD3B3"/>
<path d="M194.09 105.79C194.09 119.815 175.9 131.205 153.46 131.205C131.02 131.205 112.83 119.815 112.83 105.79C112.83 88.365 131.02 80.375 153.46 80.375C175.9 80.375 194.09 89.215 194.09 105.79Z" fill="#FFD3B3"/>
<path d="M143.26 90.235C145.47 87.09 161.875 85.985 164.17 89.47C166.465 92.87 160.43 100.265 154.565 100.265C148.7 100.265 140.285 94.4 143.26 90.235Z" fill="#413F4C"/>
<path d="M125.07 51.645C124.815 51.645 124.56 51.56 124.39 51.39C123.88 51.05 123.795 50.285 124.135 49.775C124.22 49.605 127.025 45.95 131.87 42.805C137.65 38.98 140.625 38.215 140.71 38.215C141.305 38.045 141.985 38.385 142.07 39.065C142.24 39.66 141.9 40.34 141.22 40.425C141.22 40.425 138.415 41.19 133.06 44.76C128.555 47.735 125.835 51.22 125.835 51.22C125.75 51.475 125.41 51.645 125.07 51.645Z" fill="#FF8D76"/>
<path d="M181.17 51.645C181.425 51.645 181.68 51.56 181.85 51.39C182.36 51.05 182.445 50.285 182.105 49.775C182.02 49.605 179.215 45.95 174.37 42.805C168.59 38.98 165.615 38.215 165.53 38.215C164.935 38.045 164.255 38.385 164.17 39.065C164 39.66 164.34 40.34 165.02 40.425C165.02 40.425 167.825 41.19 173.18 44.76C177.685 47.735 180.405 51.22 180.405 51.22C180.49 51.475 180.83 51.645 181.17 51.645Z" fill="#FF8D76"/>
<path d="M145.385 112.675C145.385 112.675 151.93 111.995 155.075 106.895C158.815 112.08 164.255 110.89 164.255 110.89C164.255 110.89 165.36 121.09 156.095 121.855C146.32 122.705 145.385 112.675 145.385 112.675Z" fill="#FF6EA9"/>
<path d="M154.99 118.54C154.31 118.455 153.715 117.86 153.8 117.18C153.885 113.78 153.63 107.745 153.63 107.66C153.63 106.895 154.14 106.3 154.905 106.3C155.585 106.3 156.265 106.81 156.265 107.575C156.265 107.83 156.52 113.865 156.435 117.35C156.35 117.945 155.755 118.54 154.99 118.54C154.99 118.54 155.075 118.54 154.99 118.54Z" fill="#EA4E95"/>
<path d="M144.365 114.035C140.37 114.035 137.31 112.59 137.225 112.505C136.46 112.165 136.205 111.23 136.545 110.465C136.885 109.7 137.82 109.445 138.585 109.785C138.925 109.955 147.765 114.205 153.885 106.045C154.14 105.62 154.65 105.45 155.075 105.45C155.585 105.45 156.01 105.705 156.265 106.13C160.345 111.995 168.59 109.02 168.93 108.935C169.695 108.68 170.545 109.02 170.885 109.785C171.14 110.55 170.8 111.4 170.035 111.74C166.635 113.015 159.58 113.95 155.075 109.36C151.59 113.015 147.68 114.035 144.365 114.035Z" fill="#413F4C"/>
<path d="M171.31 78.7599C173.376 78.7599 175.05 76.781 175.05 74.3399C175.05 71.8988 173.376 69.9199 171.31 69.9199C169.245 69.9199 167.57 71.8988 167.57 74.3399C167.57 76.781 169.245 78.7599 171.31 78.7599Z" fill="#413F4C"/>
<path d="M133.57 78.7599C135.636 78.7599 137.31 76.781 137.31 74.3399C137.31 71.8988 135.636 69.9199 133.57 69.9199C131.505 69.9199 129.83 71.8988 129.83 74.3399C129.83 76.781 131.505 78.7599 133.57 78.7599Z" fill="#413F4C"/>
<path d="M165.02 60.74C165.7 58.445 169.78 58.7 172.755 59.72C175.73 60.74 178.11 62.695 177.43 63.885C176.75 65.16 163.66 65.16 165.02 60.74Z" fill="#FFD3B3"/>
<path d="M138.415 60.655C137.65 58.36 133.57 58.7 130.595 59.805C127.62 60.91 125.325 62.865 126.09 64.055C126.855 65.245 139.945 64.99 138.415 60.655Z" fill="#FFD3B3"/>
<path d="M356.695 227.765L313.26 242.81L293.2 249.78L288.355 251.48L252.995 263.72C247.98 265.505 242.37 264.23 238.46 260.575L233.955 256.24C231.405 253.775 231.575 249.78 233.87 247.485C234.465 246.89 235.23 246.38 236.08 246.125L339.61 210.085C342.67 209.065 345.985 209.66 348.365 211.785L357.97 220.115C358.31 220.37 358.565 220.71 358.82 221.05C360.52 223.43 359.585 226.745 356.695 227.765Z" fill="#BBCBFF"/>
<path d="M331.195 276.215L282.575 291.77C278.07 293.215 273.14 292.195 269.57 289.05L265.065 285.055C262.6 282.93 262.43 279.445 264.045 277.065C264.81 275.96 265.915 275.11 267.275 274.685L299.49 264.995C299.745 264.91 299.915 264.825 300.085 264.655C301.105 263.89 301.19 262.445 300.17 261.51L288.355 251.395L284.53 248.165L283.85 247.57C280.11 244.425 281.47 238.305 286.23 237.115L302.805 232.78L313.26 242.81L334.255 262.87C334.935 263.465 335.445 264.23 335.785 264.995C337.995 269.16 336.04 274.685 331.195 276.215Z" fill="#BBCBFF"/>
<path d="M300.17 264.655C301.19 263.89 301.275 262.445 300.255 261.51L288.44 251.395L253.08 263.635C248.065 265.42 242.455 264.145 238.545 260.49L234.04 256.155C231.49 253.69 231.66 249.695 233.955 247.4C236.165 250.63 243.815 258.11 248.83 258.28C253.675 258.45 289.29 245.785 289.29 245.785C289.29 245.785 304.845 259.045 305.44 259.725C307.055 261.425 302.89 263.975 300.17 264.655Z" fill="#99ADF9"/>
<path d="M356.695 227.765L313.26 242.81L308.67 238.56C308.67 238.56 351.34 223.09 356.865 221.56C357.63 221.39 358.31 221.22 358.99 221.05C360.52 223.43 359.585 226.745 356.695 227.765Z" fill="#99ADF9"/>
<path d="M331.195 276.215L282.575 291.77C278.07 293.215 273.14 292.195 269.57 289.05L265.065 285.055C262.6 282.93 262.43 279.445 264.045 277.065C267.87 279.7 275.69 285.14 277.645 285.65C280.195 286.245 290.65 282.845 302.04 278.765C313.43 274.685 332.13 267.12 335.87 265.08C337.995 269.16 336.04 274.685 331.195 276.215Z" fill="#99ADF9"/>
<path d="M337.91 155.6C336.295 150.585 332.045 146.08 323.97 142.17C298.81 129.93 271.525 154.92 255.29 172.43C247.13 181.27 241.945 189.26 240.755 196.23C239.565 203.115 242.285 208.895 250.02 213.145C279.77 229.635 305.695 208.045 321.76 190.535C332.47 178.55 341.31 166.14 337.91 155.6ZM302.55 178.125C287.675 191.47 274.585 203.03 264.13 196.995C263.28 196.485 262.685 195.89 262.345 195.125C260.645 191.215 266.34 183.905 279.685 172.77C295.58 159.425 304.845 152.285 313.005 155.345C315.045 156.11 316.32 157.045 316.83 158.235C318.615 161.89 313.77 168.01 302.55 178.125Z" fill="#BBCBFF"/>
<path d="M321.59 190.45C305.525 208.045 279.6 229.635 249.85 213.06C242.115 208.81 239.395 203.03 240.585 196.145C242.965 200.82 247.895 206.94 258.095 209.745C275.69 214.59 293.71 210 312.325 191.98C328.645 176.085 334.17 164.1 337.825 155.6C341.31 166.14 332.47 178.55 321.59 190.45Z" fill="#99ADF9"/>
<path d="M316.83 158.15C316.235 156.96 314.96 156.025 313.005 155.26C304.845 152.2 295.58 159.34 279.685 172.685C266.34 183.905 260.645 191.13 262.345 195.04C261.495 194.36 260.56 193.085 260.22 190.365C259.625 185.265 262.77 180.335 271.95 171.835C281.13 163.335 294.305 152.54 302.38 150.84C310.37 149.225 315.98 153.39 316.745 156.705C316.83 157.215 316.83 157.64 316.83 158.15Z" fill="#99ADF9"/>
<path d="M267.19 129.42L259.54 132.99C255.12 135.03 249.765 133.075 247.81 128.57L207.35 36.26C206.16 33.455 206.755 30.31 208.71 28.185C209.39 27.42 210.24 26.825 211.175 26.4L220.865 22.065C224.69 20.365 229.11 22.065 230.81 25.89L271.525 117.945C271.95 118.795 272.12 119.73 272.205 120.665C272.545 124.235 270.675 127.805 267.19 129.42Z" fill="#BBCBFF"/>
<path d="M291.755 59.6349L253.42 76.8899L245.26 80.5449L231.83 61.6749L262.77 47.6499C263.195 47.4799 263.535 47.2249 263.875 46.8849C265.235 45.6099 265.49 43.3999 264.215 41.7849L248.66 22.1499C246.195 19.0049 246.535 14.7549 248.915 11.9499C249.68 11.0149 250.7 10.3349 251.89 9.82493L258.18 7.35993C261.41 6.08493 265.15 7.01993 267.36 9.82493L295.325 45.0999C295.665 45.5249 295.92 45.9499 296.175 46.4599C298.725 51.2199 296.855 57.2549 291.755 59.6349Z" fill="#BBCBFF"/>
<path d="M291.755 59.635L253.42 76.89L250.19 70.09C250.19 70.09 282.235 57.085 290.48 52.325C293.54 50.54 295.24 48.415 296.175 46.46C298.725 51.22 296.855 57.255 291.755 59.635Z" fill="#99ADF9"/>
<path d="M267.19 129.42L259.54 132.99C255.12 135.03 249.765 133.075 247.81 128.57L207.35 36.2601C206.16 33.4551 206.755 30.3101 208.71 28.1851C216.87 46.2051 252.91 125.765 253.335 126.87C253.845 128.145 254.015 128.995 257.67 127.38C261.07 125.85 269.315 122.79 272.29 120.665C272.545 124.235 270.675 127.805 267.19 129.42Z" fill="#99ADF9"/>
<path d="M263.79 46.9699C265.15 45.6949 265.405 43.4849 264.13 41.8699L248.575 22.2349C246.11 19.0899 246.45 14.8399 248.83 12.0349C252.145 16.3699 268.805 37.9599 270.335 40.7649C271.525 42.8049 267.02 45.4399 263.79 46.9699Z" fill="#99ADF9"/>
<path d="M104.755 44.25C107.243 44.25 109.26 42.233 109.26 39.745C109.26 37.257 107.243 35.24 104.755 35.24C102.267 35.24 100.25 37.257 100.25 39.745C100.25 42.233 102.267 44.25 104.755 44.25Z" fill="#BBCBFF"/>
<path d="M104.755 26.655C107.243 26.655 109.26 24.6381 109.26 22.15C109.26 19.662 107.243 17.645 104.755 17.645C102.267 17.645 100.25 19.662 100.25 22.15C100.25 24.6381 102.267 26.655 104.755 26.655Z" fill="#BBCBFF"/>
<path d="M104.755 9.06006C107.243 9.06006 109.26 7.0431 109.26 4.55505C109.26 2.06701 107.243 0.0500488 104.755 0.0500488C102.267 0.0500488 100.25 2.06701 100.25 4.55505C100.25 7.0431 102.267 9.06006 104.755 9.06006Z" fill="#BBCBFF"/>
</g>
<defs>
<clipPath id="clip0_1_1314">
<rect width="360" height="293" fill="white"/>
</clipPath>
</defs>
</svg>
