<svg width="45" height="10" viewBox="0 0 45 10" fill="none" xmlns="http://www.w3.org/2000/svg">
<path d="M2.352 5.16H2.208C2.024 5.16 1.84 5.14 1.656 5.1C1.472 5.06 1.3 4.988 1.14 4.884C0.988 4.772 0.864 4.624 0.768 4.44C0.672 4.248 0.624 4.008 0.624 3.72V1.728C0.624 1.44 0.672 1.204 0.768 1.02C0.864 0.828 0.988 0.68 1.14 0.576C1.3 0.464 1.472 0.388 1.656 0.348C1.84 0.308 2.024 0.288 2.208 0.288H2.352V5.16ZM0.54 7.848C0.54 7.6 0.588 7.4 0.684 7.248C0.78 7.088 0.896 6.964 1.032 6.876C1.168 6.788 1.312 6.732 1.464 6.708C1.616 6.676 1.748 6.66 1.86 6.66C1.956 6.66 2.036 6.668 2.1 6.684V7.284C2.1 7.58 2.216 7.728 2.448 7.728C2.52 7.728 2.58 7.716 2.628 7.692C2.676 7.668 2.728 7.632 2.784 7.584C2.808 7.648 2.82 7.728 2.82 7.824C2.828 7.92 2.832 7.996 2.832 8.052C2.832 8.148 2.816 8.252 2.784 8.364C2.752 8.476 2.696 8.58 2.616 8.676C2.544 8.764 2.44 8.84 2.304 8.904C2.168 8.968 1.996 9 1.788 9C1.572 9 1.384 8.964 1.224 8.892C1.072 8.82 0.944 8.732 0.84 8.628C0.744 8.516 0.668 8.392 0.612 8.256C0.564 8.12 0.54 7.984 0.54 7.848ZM3.024 4.14H3.168C3.344 4.14 3.524 4.16 3.708 4.2C3.9 4.24 4.072 4.316 4.224 4.428C4.384 4.532 4.512 4.68 4.608 4.872C4.704 5.056 4.752 5.292 4.752 5.58V7.572C4.752 7.86 4.704 8.1 4.608 8.292C4.512 8.476 4.384 8.624 4.224 8.736C4.072 8.84 3.9 8.912 3.708 8.952C3.524 8.992 3.344 9.012 3.168 9.012H3.024V4.14ZM4.812 1.44C4.812 1.696 4.764 1.9 4.668 2.052C4.572 2.204 4.456 2.324 4.32 2.412C4.184 2.5 4.04 2.56 3.888 2.592C3.736 2.616 3.604 2.628 3.492 2.628C3.396 2.628 3.316 2.62 3.252 2.604V2.004C3.252 1.708 3.136 1.56 2.904 1.56C2.832 1.56 2.772 1.572 2.724 1.596C2.676 1.62 2.624 1.656 2.568 1.704C2.544 1.64 2.528 1.56 2.52 1.464C2.52 1.368 2.52 1.292 2.52 1.236C2.52 1.14 2.536 1.036 2.568 0.924C2.6 0.812 2.652 0.712 2.724 0.624C2.804 0.528 2.912 0.447999 3.048 0.383999C3.184 0.32 3.356 0.288 3.564 0.288C3.78 0.288 3.964 0.324 4.116 0.396C4.276 0.468 4.404 0.56 4.5 0.672C4.604 0.776 4.68 0.899999 4.728 1.044C4.784 1.18 4.812 1.312 4.812 1.44ZM8.63147 4.776C8.63147 4.68 8.62347 4.588 8.60747 4.5C8.59947 4.412 8.57547 4.336 8.53547 4.272C8.50347 4.2 8.45147 4.144 8.37947 4.104C8.31547 4.056 8.22347 4.032 8.10347 4.032C8.03947 4.032 7.97147 4.044 7.89947 4.068C7.83547 4.084 7.77547 4.116 7.71947 4.164C7.68747 4.1 7.66747 4.04 7.65947 3.984C7.65147 3.92 7.64747 3.856 7.64747 3.792C7.64747 3.536 7.75547 3.324 7.97147 3.156C8.18747 2.988 8.44747 2.904 8.75147 2.904C9.23147 2.904 9.59947 3.028 9.85547 3.276C10.1115 3.516 10.2395 3.864 10.2395 4.32V9C10.0555 9 9.86747 8.98 9.67547 8.94C9.49147 8.892 9.31947 8.816 9.15947 8.712C9.00747 8.6 8.87947 8.456 8.77547 8.28C8.67947 8.096 8.63147 7.864 8.63147 7.584V4.776ZM7.50347 7.128C7.50347 7.224 7.50747 7.316 7.51547 7.404C7.53147 7.492 7.55547 7.572 7.58747 7.644C7.62747 7.708 7.67947 7.764 7.74347 7.812C7.81547 7.852 7.91147 7.872 8.03147 7.872C8.09547 7.872 8.15947 7.864 8.22347 7.848C8.29547 7.824 8.35947 7.788 8.41547 7.74C8.44747 7.804 8.46747 7.868 8.47547 7.932C8.48347 7.988 8.48747 8.048 8.48747 8.112C8.48747 8.368 8.37947 8.58 8.16347 8.748C7.94747 8.916 7.68747 9 7.38347 9C6.90347 9 6.53547 8.872 6.27947 8.616C6.02347 8.36 5.89547 8.04 5.89547 7.656V4.32C5.89547 4.056 5.94347 3.836 6.03947 3.66C6.14347 3.476 6.27147 3.328 6.42347 3.216C6.58347 3.104 6.75547 3.024 6.93947 2.976C7.13147 2.928 7.31947 2.904 7.50347 2.904V7.128ZM14.0573 4.776C14.0573 4.68 14.0493 4.588 14.0333 4.5C14.0253 4.412 14.0013 4.336 13.9613 4.272C13.9293 4.2 13.8773 4.144 13.8053 4.104C13.7413 4.056 13.6493 4.032 13.5293 4.032C13.4653 4.032 13.3973 4.044 13.3253 4.068C13.2613 4.084 13.2013 4.116 13.1453 4.164C13.1213 4.116 13.1053 4.072 13.0973 4.032C13.0973 3.984 13.0973 3.94 13.0973 3.9V3.792C13.0973 3.536 13.2093 3.324 13.4333 3.156C13.6573 2.988 13.9493 2.904 14.3092 2.904C14.7413 2.904 15.0733 3.036 15.3053 3.3C15.5453 3.556 15.6653 3.936 15.6653 4.44V9H15.5933C15.1133 9 14.7373 8.888 14.4653 8.664C14.1933 8.432 14.0573 8.064 14.0573 7.56V4.776ZM11.3213 2.904H11.4533C11.8693 2.904 12.2173 3.016 12.4973 3.24C12.7853 3.464 12.9293 3.82 12.9293 4.308V9H12.8573C12.6733 9 12.4893 8.976 12.3053 8.928C12.1293 8.88 11.9653 8.804 11.8133 8.7C11.6693 8.588 11.5493 8.448 11.4533 8.28C11.3653 8.104 11.3213 7.888 11.3213 7.632V2.904ZM16.7933 4.776C16.7933 4.68 16.7853 4.588 16.7693 4.5C16.7613 4.412 16.7373 4.336 16.6973 4.272C16.6653 4.2 16.6133 4.144 16.5413 4.104C16.4773 4.056 16.3853 4.032 16.2653 4.032C16.2013 4.032 16.1333 4.044 16.0613 4.068C15.9973 4.084 15.9373 4.116 15.8813 4.164C15.8493 4.1 15.8333 4.028 15.8333 3.948C15.8333 3.668 15.9293 3.424 16.1213 3.216C16.3133 3.008 16.6013 2.904 16.9853 2.904C17.4413 2.904 17.7893 3.036 18.0293 3.3C18.2773 3.556 18.4013 3.936 18.4013 4.44V9H18.3293C17.8493 9 17.4733 8.888 17.2013 8.664C16.9293 8.432 16.7933 8.064 16.7933 7.56V4.776ZM22.2135 4.776C22.2135 4.68 22.2055 4.588 22.1895 4.5C22.1815 4.412 22.1575 4.336 22.1175 4.272C22.0855 4.2 22.0335 4.144 21.9615 4.104C21.8975 4.056 21.8055 4.032 21.6855 4.032C21.6215 4.032 21.5535 4.044 21.4815 4.068C21.4175 4.084 21.3575 4.116 21.3015 4.164C21.2695 4.1 21.2495 4.04 21.2415 3.984C21.2335 3.92 21.2295 3.856 21.2295 3.792C21.2295 3.536 21.3375 3.324 21.5535 3.156C21.7695 2.988 22.0295 2.904 22.3335 2.904C22.8135 2.904 23.1815 3.028 23.4375 3.276C23.6935 3.516 23.8215 3.864 23.8215 4.32V9C23.6375 9 23.4495 8.98 23.2575 8.94C23.0735 8.892 22.9015 8.816 22.7415 8.712C22.5895 8.6 22.4615 8.456 22.3575 8.28C22.2615 8.096 22.2135 7.864 22.2135 7.584V4.776ZM21.0855 7.128C21.0855 7.224 21.0895 7.316 21.0975 7.404C21.1135 7.492 21.1375 7.572 21.1695 7.644C21.2095 7.708 21.2615 7.764 21.3255 7.812C21.3975 7.852 21.4935 7.872 21.6135 7.872C21.6775 7.872 21.7415 7.864 21.8055 7.848C21.8775 7.824 21.9415 7.788 21.9975 7.74C22.0295 7.804 22.0495 7.868 22.0575 7.932C22.0655 7.988 22.0695 8.048 22.0695 8.112C22.0695 8.368 21.9615 8.58 21.7455 8.748C21.5295 8.916 21.2695 9 20.9655 9C20.4855 9 20.1175 8.872 19.8615 8.616C19.6055 8.36 19.4775 8.04 19.4775 7.656V4.32C19.4775 4.056 19.5255 3.836 19.6215 3.66C19.7255 3.476 19.8535 3.328 20.0055 3.216C20.1655 3.104 20.3375 3.024 20.5215 2.976C20.7135 2.928 20.9015 2.904 21.0855 2.904V7.128ZM26.5113 9H26.4033C26.2193 9 26.0353 8.98 25.8513 8.94C25.6753 8.892 25.5153 8.816 25.3713 8.712C25.2353 8.6 25.1233 8.456 25.0353 8.28C24.9473 8.104 24.9033 7.888 24.9033 7.632V4.32C24.9033 4.032 24.9513 3.796 25.0473 3.612C25.1433 3.428 25.2673 3.284 25.4193 3.18C25.5713 3.076 25.7433 3.004 25.9353 2.964C26.1273 2.924 26.3193 2.904 26.5113 2.904V9ZM29.1633 4.092C29.1633 4.212 29.1433 4.336 29.1033 4.464C29.0713 4.592 29.0113 4.708 28.9233 4.812C28.8353 4.916 28.7193 5 28.5753 5.064C28.4393 5.128 28.2673 5.16 28.0593 5.16C27.8913 5.16 27.7473 5.144 27.6273 5.112V4.704C27.6273 4.528 27.5953 4.38 27.5313 4.26C27.4673 4.14 27.3433 4.072 27.1593 4.056C27.0713 4.056 26.9953 4.072 26.9313 4.104C26.8753 4.128 26.8193 4.16 26.7633 4.2C26.7073 4.088 26.6793 3.96 26.6793 3.816C26.6793 3.576 26.7833 3.364 26.9913 3.18C27.1993 2.996 27.4873 2.904 27.8553 2.904H27.9393C28.0753 2.912 28.2153 2.94 28.3593 2.988C28.5033 3.036 28.6353 3.108 28.7553 3.204C28.8753 3.3 28.9713 3.424 29.0433 3.576C29.1233 3.72 29.1633 3.892 29.1633 4.092ZM29.1633 7.836C29.1633 8.028 29.1233 8.196 29.0433 8.34C28.9713 8.484 28.8753 8.604 28.7553 8.7C28.6353 8.796 28.5033 8.868 28.3593 8.916C28.2153 8.964 28.0753 8.992 27.9393 9H27.8553C27.4873 9 27.1993 8.908 26.9913 8.724C26.7833 8.54 26.6793 8.328 26.6793 8.088C26.6793 7.944 26.7073 7.816 26.7633 7.704C26.8673 7.8 26.9873 7.848 27.1233 7.848C27.3233 7.832 27.4553 7.764 27.5193 7.644C27.5913 7.524 27.6273 7.376 27.6273 7.2V6.792C27.7473 6.76 27.8913 6.744 28.0593 6.744C28.2673 6.744 28.4393 6.776 28.5753 6.84C28.7193 6.904 28.8353 6.988 28.9233 7.092C29.0113 7.196 29.0713 7.316 29.1033 7.452C29.1433 7.58 29.1633 7.708 29.1633 7.836ZM30.1298 0.288H30.2618C30.6778 0.288 31.0258 0.4 31.3058 0.624C31.5938 0.848 31.7378 1.204 31.7378 1.692V9H31.6658C31.4818 9 31.2978 8.976 31.1138 8.928C30.9378 8.88 30.7738 8.804 30.6218 8.7C30.4778 8.588 30.3578 8.448 30.2618 8.28C30.1738 8.104 30.1298 7.888 30.1298 7.632V0.288ZM32.8658 4.776C32.8658 4.68 32.8578 4.588 32.8418 4.5C32.8338 4.412 32.8098 4.336 32.7698 4.272C32.7378 4.2 32.6858 4.144 32.6138 4.104C32.5498 4.056 32.4578 4.032 32.3378 4.032C32.2738 4.032 32.2058 4.044 32.1338 4.068C32.0698 4.084 32.0098 4.116 31.9538 4.164C31.9218 4.1 31.9018 4.04 31.8938 3.984C31.8858 3.92 31.8818 3.856 31.8818 3.792C31.8818 3.536 31.9898 3.324 32.2058 3.156C32.4218 2.988 32.6818 2.904 32.9858 2.904C33.4658 2.904 33.8338 3.028 34.0898 3.276C34.3458 3.516 34.4738 3.864 34.4738 4.32V9C34.2898 9 34.1018 8.98 33.9098 8.94C33.7258 8.892 33.5538 8.816 33.3938 8.712C33.2418 8.6 33.1138 8.456 33.0098 8.28C32.9138 8.096 32.8658 7.864 32.8658 7.584V4.776ZM38.2916 4.776C38.2916 4.68 38.2836 4.588 38.2676 4.5C38.2596 4.412 38.2356 4.336 38.1956 4.272C38.1636 4.2 38.1116 4.144 38.0396 4.104C37.9756 4.056 37.8836 4.032 37.7636 4.032C37.6996 4.032 37.6316 4.044 37.5596 4.068C37.4956 4.084 37.4356 4.116 37.3796 4.164C37.3476 4.1 37.3276 4.04 37.3196 3.984C37.3116 3.92 37.3076 3.856 37.3076 3.792C37.3076 3.536 37.4156 3.324 37.6316 3.156C37.8476 2.988 38.1076 2.904 38.4116 2.904C38.8916 2.904 39.2596 3.028 39.5156 3.276C39.7716 3.516 39.8996 3.864 39.8996 4.32V9C39.7156 9 39.5276 8.98 39.3356 8.94C39.1516 8.892 38.9796 8.816 38.8196 8.712C38.6676 8.6 38.5396 8.456 38.4356 8.28C38.3396 8.096 38.2916 7.864 38.2916 7.584V4.776ZM37.1636 7.128C37.1636 7.224 37.1676 7.316 37.1756 7.404C37.1916 7.492 37.2156 7.572 37.2476 7.644C37.2876 7.708 37.3396 7.764 37.4036 7.812C37.4756 7.852 37.5716 7.872 37.6916 7.872C37.7556 7.872 37.8196 7.864 37.8836 7.848C37.9556 7.824 38.0196 7.788 38.0756 7.74C38.1076 7.804 38.1276 7.868 38.1356 7.932C38.1436 7.988 38.1476 8.048 38.1476 8.112C38.1476 8.368 38.0396 8.58 37.8236 8.748C37.6076 8.916 37.3476 9 37.0436 9C36.5636 9 36.1956 8.872 35.9396 8.616C35.6836 8.36 35.5556 8.04 35.5556 7.656V4.32C35.5556 4.056 35.6036 3.836 35.6996 3.66C35.8036 3.476 35.9316 3.328 36.0836 3.216C36.2436 3.104 36.4156 3.024 36.5996 2.976C36.7916 2.928 36.9796 2.904 37.1636 2.904V7.128ZM40.9814 2.904H41.1134C41.5294 2.904 41.8774 3.016 42.1574 3.24C42.4454 3.464 42.5894 3.82 42.5894 4.308V9H42.5174C42.3334 9 42.1494 8.976 41.9654 8.928C41.7894 8.88 41.6254 8.804 41.4734 8.7C41.3294 8.588 41.2094 8.448 41.1134 8.28C41.0254 8.104 40.9814 7.888 40.9814 7.632V2.904ZM44.9534 3.96C44.9534 4.184 44.9094 4.364 44.8214 4.5C44.7334 4.636 44.6254 4.744 44.4974 4.824C44.3774 4.896 44.2454 4.944 44.1014 4.968C43.9574 4.992 43.8334 5.004 43.7294 5.004C43.6174 5.004 43.5214 4.996 43.4414 4.98V4.548C43.4414 4.364 43.4094 4.248 43.3454 4.2C43.2894 4.152 43.2174 4.128 43.1294 4.128C43.0494 4.128 42.9854 4.144 42.9374 4.176C42.8974 4.208 42.8494 4.256 42.7934 4.32C42.7694 4.256 42.7534 4.192 42.7454 4.128C42.7454 4.056 42.7454 3.988 42.7454 3.924C42.7454 3.82 42.7614 3.708 42.7934 3.588C42.8334 3.468 42.8934 3.36 42.9734 3.264C43.0614 3.16 43.1734 3.076 43.3094 3.012C43.4454 2.94 43.6174 2.904 43.8254 2.904C44.2094 2.904 44.4934 3.008 44.6774 3.216C44.8614 3.416 44.9534 3.664 44.9534 3.96Z" fill="#2B4CFF"/>
</svg>
