<svg width="5" height="10" viewBox="0 0 5 10" fill="none" xmlns="http://www.w3.org/2000/svg">
<path d="M2.352 5.16H2.208C2.024 5.16 1.84 5.14 1.656 5.1C1.472 5.06 1.3 4.988 1.14 4.884C0.988 4.772 0.864 4.624 0.768 4.44C0.672 4.248 0.624 4.008 0.624 3.72V1.728C0.624 1.44 0.672 1.204 0.768 1.02C0.864 0.828 0.988 0.68 1.14 0.576C1.3 0.464 1.472 0.388 1.656 0.348C1.84 0.308 2.024 0.288 2.208 0.288H2.352V5.16ZM0.54 7.848C0.54 7.6 0.588 7.4 0.684 7.248C0.78 7.088 0.896 6.964 1.032 6.876C1.168 6.788 1.312 6.732 1.464 6.708C1.616 6.676 1.748 6.66 1.86 6.66C1.956 6.66 2.036 6.668 2.1 6.684V7.284C2.1 7.58 2.216 7.728 2.448 7.728C2.52 7.728 2.58 7.716 2.628 7.692C2.676 7.668 2.728 7.632 2.784 7.584C2.808 7.648 2.82 7.728 2.82 7.824C2.828 7.92 2.832 7.996 2.832 8.052C2.832 8.148 2.816 8.252 2.784 8.364C2.752 8.476 2.696 8.58 2.616 8.676C2.544 8.764 2.44 8.84 2.304 8.904C2.168 8.968 1.996 9 1.788 9C1.572 9 1.384 8.964 1.224 8.892C1.072 8.82 0.944 8.732 0.84 8.628C0.744 8.516 0.668 8.392 0.612 8.256C0.564 8.12 0.54 7.984 0.54 7.848ZM3.024 4.14H3.168C3.344 4.14 3.524 4.16 3.708 4.2C3.9 4.24 4.072 4.316 4.224 4.428C4.384 4.532 4.512 4.68 4.608 4.872C4.704 5.056 4.752 5.292 4.752 5.58V7.572C4.752 7.86 4.704 8.1 4.608 8.292C4.512 8.476 4.384 8.624 4.224 8.736C4.072 8.84 3.9 8.912 3.708 8.952C3.524 8.992 3.344 9.012 3.168 9.012H3.024V4.14ZM4.812 1.44C4.812 1.696 4.764 1.9 4.668 2.052C4.572 2.204 4.456 2.324 4.32 2.412C4.184 2.5 4.04 2.56 3.888 2.592C3.736 2.616 3.604 2.628 3.492 2.628C3.396 2.628 3.316 2.62 3.252 2.604V2.004C3.252 1.708 3.136 1.56 2.904 1.56C2.832 1.56 2.772 1.572 2.724 1.596C2.676 1.62 2.624 1.656 2.568 1.704C2.544 1.64 2.528 1.56 2.52 1.464C2.52 1.368 2.52 1.292 2.52 1.236C2.52 1.14 2.536 1.036 2.568 0.924C2.6 0.812 2.652 0.712 2.724 0.624C2.804 0.528 2.912 0.447999 3.048 0.383999C3.184 0.32 3.356 0.288 3.564 0.288C3.78 0.288 3.964 0.324 4.116 0.396C4.276 0.468 4.404 0.56 4.5 0.672C4.604 0.776 4.68 0.899999 4.728 1.044C4.784 1.18 4.812 1.312 4.812 1.44Z" fill="#2B4BFF"/>
</svg>
